<svg width="48.000000" height="48.000000" viewBox="0 0 48 48" fill="none" xmlns="http://www.w3.org/2000/svg" xmlns:xlink="http://www.w3.org/1999/xlink">
	<desc>
			Created with Pixso.
	</desc>
	<defs>
		<clipPath id="clip5_68">
			<rect id="natural_resources_z04wa51xqyfw" width="48.000000" height="48.000000" fill="white" fill-opacity="0"/>
		</clipPath>
	</defs>
	<g clip-path="url(#clip5_68)">
		<path id="path" d="M47.68 20.12C47.42 19.86 47.06 19.75 46.71 19.82L28.5 23.22C28.29 23.26 28.09 23.36 27.93 23.52L23.8 27.65C23.6 27.85 23.48 28.13 23.48 28.43L23.61 42.64L20.23 46.02C19.81 46.45 19.81 47.14 20.23 47.56C20.44 47.77 20.72 47.88 21 47.88C21.28 47.88 21.56 47.77 21.77 47.56L25.15 44.18L39.37 44.31C39.65 44.31 39.94 44.19 40.15 43.99L44.28 39.86C44.43 39.7 44.54 39.5 44.58 39.29L47.98 21.09C48.04 20.73 47.93 20.37 47.68 20.12ZM42.5 38.56L38.93 42.13L27.31 42.02L30.28 39.05L35.7 38.72C36.3 38.69 36.76 38.17 36.72 37.57C36.69 36.97 36.17 36.51 35.57 36.55L32.6 36.73L35.22 34.11L39.19 33.87C39.79 33.84 40.25 33.32 40.21 32.72C40.18 32.12 39.66 31.66 39.06 31.7L37.54 31.79L41.18 28.15C41.61 27.73 41.61 27.04 41.18 26.61C40.76 26.19 40.07 26.19 39.64 26.61L36 30.25L36.09 28.73C36.13 28.13 35.67 27.62 35.07 27.58C34.47 27.54 33.96 28 33.92 28.6L33.68 32.57L31.06 35.19L31.24 32.22C31.28 31.62 30.82 31.1 30.22 31.07C29.62 31.03 29.1 31.49 29.07 32.09L28.74 37.51L25.77 40.48L25.67 28.86L29.23 25.29L45.54 22.25L42.5 38.56ZM14.15 38.93C14.14 38.94 14.13 38.94 14.12 38.94C15.05 39.56 16.05 40.1 17.12 40.55C17.67 40.78 17.93 41.42 17.7 41.97C17.53 42.39 17.12 42.64 16.7 42.64C16.56 42.64 16.41 42.61 16.28 42.56C9.16 39.57 4.44 32.84 4.03 25.2L1.08 25.2C0.48 25.2 0 24.71 0 24.11C0 23.51 0.48 23.02 1.08 23.02L4.03 23.02C4.14 21.03 4.54 19.11 5.19 17.31L2.48 16.16C1.93 15.93 1.67 15.29 1.9 14.73C2.14 14.18 2.78 13.92 3.33 14.16L6.05 15.31C6.86 13.66 7.9 12.13 9.12 10.77L7.02 8.68C6.6 8.26 6.6 7.57 7.02 7.14C7.45 6.72 8.14 6.72 8.56 7.14L10.66 9.23C12.1 7.94 13.73 6.85 15.51 6.01L14.4 3.28C14.18 2.72 14.45 2.08 15 1.86C15.56 1.63 16.2 1.9 16.42 2.46L17.53 5.19C19.23 4.61 21.03 4.25 22.91 4.15L22.91 1.2C22.91 0.6 23.39 0.11 24 0.11C24.6 0.11 25.08 0.6 25.08 1.2L25.08 4.15C27.05 4.26 28.96 4.65 30.79 5.32L31.95 2.6C32.18 2.04 32.82 1.78 33.37 2.02C33.93 2.25 34.18 2.89 33.95 3.45L32.79 6.17C33.65 6.6 34.49 7.08 35.29 7.64C36 8.13 36.68 8.67 37.33 9.24L39.43 7.14C39.85 6.72 40.54 6.72 40.97 7.14C41.39 7.57 41.39 8.26 40.97 8.68L38.87 10.78C40.17 12.23 41.26 13.85 42.09 15.63L44.83 14.52C45.39 14.29 46.02 14.56 46.25 15.12C46.47 15.68 46.2 16.31 45.65 16.54L41.93 18.04C41.37 18.26 40.74 18 40.51 17.44C38.69 12.98 35.25 9.56 31.03 7.74C31.01 7.73 30.91 7.69 30.88 7.68C28.75 6.78 26.41 6.3 24 6.3C14.44 6.3 6.62 13.86 6.2 23.32C6.89 23.41 7.63 23.31 8.19 23.03C8.67 22.78 8.98 22.43 9.11 21.97C9.24 21.5 9.67 21.18 10.16 21.18C10.64 21.18 11.07 21.5 11.2 21.97C11.52 23.07 12.69 23.47 13.6 23.47C14.51 23.47 15.68 23.07 16 21.97C16.13 21.5 16.56 21.18 17.05 21.18C17.53 21.18 17.96 21.5 18.09 21.97C18.29 22.66 18.82 23.03 19.23 23.21C20.02 23.56 21.04 23.55 21.82 23.18C22.37 22.91 23.02 23.14 23.28 23.68C23.54 24.23 23.31 24.88 22.77 25.14C21.42 25.79 19.72 25.81 18.34 25.2C17.84 24.97 17.4 24.68 17.04 24.32C16.19 25.15 14.97 25.64 13.6 25.64C12.22 25.64 10.99 25.14 10.14 24.3C9.86 24.56 9.54 24.78 9.17 24.97C8.3 25.41 7.26 25.59 6.24 25.51C6.35 26.98 6.64 28.4 7.1 29.76C7.24 29.9 7.96 30.12 8.98 29.9C9.84 29.71 10.48 29.29 10.61 28.82C10.75 28.36 11.18 28.03 11.66 28.03C12.15 28.03 12.57 28.36 12.71 28.82C13.03 29.93 14.2 30.32 15.11 30.32C16.01 30.32 17.19 29.93 17.5 28.82C17.64 28.36 18.07 28.03 18.55 28.03C19.04 28.03 19.46 28.36 19.6 28.82C19.79 29.5 20.31 29.86 20.7 30.05C21.25 30.3 21.49 30.95 21.24 31.49C20.98 32.04 20.34 32.28 19.79 32.02C19.31 31.8 18.9 31.52 18.55 31.17C17.7 32 16.47 32.5 15.11 32.5C13.68 32.5 12.41 31.96 11.56 31.07C10.64 31.79 9.36 32.15 8.23 32.17C8.18 32.17 8.14 32.17 8.1 32.17C8.87 33.7 9.87 35.11 11.05 36.36C11.09 36.39 11.13 36.42 11.17 36.45C11.69 36.94 12.65 37.09 13.57 36.83C14.43 36.6 15.06 36.05 15.25 35.38C15.39 34.91 15.81 34.59 16.3 34.59C16.78 34.59 17.21 34.91 17.34 35.38C17.66 36.49 18.88 36.93 19.94 36.87C20.54 36.83 21.06 37.29 21.09 37.89C21.13 38.49 20.67 39.01 20.07 39.04C18.58 39.13 17.22 38.62 16.3 37.72C15.73 38.27 15 38.7 14.15 38.93Z" fill="#6E6A63" fill-opacity="1.000000" fill-rule="nonzero"/>
	</g>
</svg>
