<svg width="48.000000" height="48.000000" viewBox="0 0 48 48" fill="none" xmlns="http://www.w3.org/2000/svg" xmlns:xlink="http://www.w3.org/1999/xlink">
	<desc>
			Created with Pixso.
	</desc>
	<defs>
		<clipPath id="clip5_70">
			<rect id="target_sqt47zictyxi" width="48.000000" height="48.000000" fill="white" fill-opacity="0"/>
		</clipPath>
	</defs>
	<g clip-path="url(#clip5_70)">
		<path id="path" d="M24 0C10.76 0 0 10.76 0 24C0 24.74 0.6 25.35 1.35 25.35C2.09 25.35 2.7 24.74 2.7 24C2.7 12.25 12.25 2.7 24 2.7C35.74 2.7 45.29 12.25 45.29 24C45.29 35.74 35.74 45.29 24 45.29C19.65 45.29 15.46 43.99 11.9 41.53C8.42 39.12 5.75 35.78 4.19 31.86C3.92 31.16 3.13 30.83 2.44 31.1C1.75 31.38 1.41 32.16 1.68 32.86C3.44 37.27 6.44 41.04 10.36 43.75C14.38 46.53 19.09 48 24 48C37.23 48 48 37.23 48 24C48 10.76 37.23 0 24 0Z" fill="#6E6A63" fill-opacity="1.000000" fill-rule="nonzero"/>
		<path id="path" d="M24 9.82C16.18 9.82 9.82 16.18 9.82 24C9.82 31.81 16.18 38.18 24 38.18C31.81 38.18 38.17 31.81 38.17 24C38.17 18.86 35.39 14.12 30.9 11.61C30.25 11.25 29.43 11.48 29.07 12.13C28.7 12.78 28.94 13.6 29.59 13.97C33.22 16 35.47 19.84 35.47 24C35.47 30.32 30.32 35.47 24 35.47C17.67 35.47 12.52 30.32 12.52 24C12.52 17.67 17.67 12.52 24 12.52C24.74 12.52 25.35 11.91 25.35 11.17C25.35 10.42 24.74 9.82 24 9.82Z" fill="#6E6A63" fill-opacity="1.000000" fill-rule="nonzero"/>
		<path id="path" d="M19.18 24C19.18 26.65 21.34 28.81 23.99 28.81C26.65 28.81 28.81 26.65 28.81 24C28.81 21.34 26.65 19.18 23.99 19.18C21.34 19.18 19.18 21.34 19.18 24ZM26.11 24C26.11 25.16 25.16 26.11 24 26.11C22.83 26.11 21.88 25.16 21.88 24C21.88 22.83 22.83 21.88 24 21.88C25.16 21.88 26.11 22.83 26.11 24Z" fill="#6E6A63" fill-opacity="1.000000" fill-rule="nonzero"/>
	</g>
</svg>
