<svg width="48.000000" height="48.000122" viewBox="0 0 48 48.0001" fill="none" xmlns="http://www.w3.org/2000/svg" xmlns:xlink="http://www.w3.org/1999/xlink">
	<desc>
			Created with Pixso.
	</desc>
	<defs>
		<clipPath id="clip5_75">
			<rect id="aid_p727k5dqg3ns" width="48.000000" height="48.000092" fill="white" fill-opacity="0"/>
		</clipPath>
	</defs>
	<g clip-path="url(#clip5_75)">
		<path id="path" d="M25.03 44.52L22.98 44.52C22.07 44.52 21.34 43.78 21.34 42.87L21.34 41.65L20.11 41.65C19.2 41.65 18.46 40.91 18.46 40L18.46 37.96C18.46 37.05 19.2 36.31 20.11 36.31L21.34 36.31L21.34 35.09C21.34 34.18 22.07 33.44 22.98 33.44L25.03 33.44C25.93 33.44 26.67 34.18 26.67 35.09L26.67 36.31L27.9 36.31C28.8 36.31 29.54 37.05 29.54 37.96L29.54 40C29.54 40.91 28.8 41.65 27.9 41.65L26.67 41.65L26.67 42.87C26.67 43.78 25.93 44.52 25.03 44.52ZM23.21 42.65L24.8 42.65L24.8 40.71C24.8 40.19 25.22 39.77 25.74 39.77L27.67 39.77L27.67 38.19L25.74 38.19C25.22 38.19 24.8 37.77 24.8 37.25L24.8 35.32L23.21 35.32L23.21 37.25C23.21 37.77 22.79 38.19 22.27 38.19L20.34 38.19L20.34 39.77L22.27 39.77C22.79 39.77 23.21 40.19 23.21 40.71L23.21 42.65Z" fill="#6E6A63" fill-opacity="1.000000" fill-rule="nonzero"/>
		<path id="path" d="M39.11 8.87C39.05 8.87 38.99 8.87 38.93 8.86C38.87 8.84 38.81 8.83 38.75 8.8C38.69 8.78 38.64 8.75 38.59 8.72C38.54 8.68 38.49 8.64 38.45 8.6C38.4 8.56 38.36 8.51 38.33 8.46C38.3 8.41 38.27 8.35 38.24 8.29C38.22 8.24 38.2 8.18 38.19 8.12C38.18 8.06 38.17 8 38.17 7.94C38.17 7.69 38.27 7.45 38.45 7.27C38.49 7.23 38.54 7.19 38.59 7.16C38.64 7.12 38.69 7.09 38.75 7.07C38.81 7.05 38.87 7.03 38.93 7.02C39.23 6.96 39.55 7.06 39.77 7.27C39.95 7.45 40.05 7.69 40.05 7.94C40.05 8 40.04 8.06 40.03 8.12C40.02 8.18 40 8.24 39.97 8.29C39.95 8.35 39.92 8.41 39.89 8.46C39.85 8.51 39.81 8.56 39.77 8.6C39.6 8.77 39.36 8.87 39.11 8.87Z" fill="#6E6A63" fill-opacity="1.000000" fill-rule="nonzero"/>
		<path id="path" d="M42.67 11.7C42.44 11.23 41.88 11.04 41.42 11.26C40.95 11.49 40.76 12.05 40.98 12.52C41.95 14.52 42.55 16.64 42.77 18.84C41.86 18.38 40.86 18.14 39.81 18.14C38.68 18.14 37.59 18.43 36.63 18.97C36.06 14.06 34.66 9.58 32.65 6.19C31.88 4.89 31.04 3.79 30.14 2.89C31.69 3.42 33.17 4.16 34.54 5.09C34.86 5.3 35.17 5.52 35.47 5.75C35.88 6.07 36.47 5.99 36.78 5.58C37.1 5.17 37.02 4.58 36.61 4.27C36.28 4.01 35.94 3.77 35.59 3.54C32.16 1.22 28.16 0 24 0C18.47 0 13.26 2.15 9.35 6.07C5.43 9.98 3.28 15.19 3.28 20.72C3.28 21.24 3.7 21.66 4.21 21.66L4.24 21.66C4.49 21.66 4.73 21.56 4.9 21.38C5.78 20.5 6.95 20.01 8.19 20.01C9.42 20.01 10.57 20.49 11.44 21.35L18.11 29.97L15.62 29.97C13.9 29.97 12.5 31.36 12.5 33.08L12.5 44.88C12.5 46.6 13.9 48 15.62 48L32.39 48C34.11 48 35.5 46.6 35.5 44.88L35.5 33.08C35.5 31.36 34.11 29.97 32.39 29.97L29.9 29.97L36.57 21.35C37.44 20.49 38.59 20.01 39.81 20.01C41.05 20.01 42.23 20.5 43.1 21.38C43.28 21.56 43.52 21.66 43.77 21.66L43.79 21.66C44.31 21.66 44.73 21.24 44.73 20.72C44.73 17.56 44.04 14.53 42.67 11.7ZM24 1.96C24.26 2.23 25.03 3.32 25.79 7.44C26.35 10.5 26.77 14.5 26.98 18.86C26.07 18.39 25.05 18.14 24 18.14C22.95 18.14 21.94 18.39 21.03 18.86C21.24 14.5 21.65 10.5 22.22 7.44C22.98 3.32 23.75 2.23 24 1.96ZM27.04 21.15L27.04 29.97L20.97 29.97L20.97 21.15C21.81 20.41 22.88 20.01 24 20.01C25.13 20.01 26.19 20.41 27.04 21.15ZM11.37 18.97C10.41 18.43 9.33 18.14 8.2 18.14C7.15 18.14 6.15 18.38 5.24 18.84C5.98 11.42 11.04 5.25 17.86 2.9C16.97 3.8 16.13 4.9 15.36 6.19C13.34 9.58 11.95 14.06 11.37 18.97ZM16.97 7.15C18.34 4.85 19.93 3.25 21.6 2.46C21.2 3.46 20.84 4.78 20.5 6.44C19.85 9.71 19.38 14.09 19.15 18.91C17.34 17.97 15.15 17.94 13.28 18.82C13.85 14.32 15.14 10.23 16.97 7.15ZM13.45 20.88C15.19 19.71 17.52 19.79 19.1 21.12L19.1 28.18L13.45 20.88ZM32.39 31.84C33.07 31.84 33.63 32.4 33.63 33.08L33.63 44.88C33.63 45.56 33.07 46.12 32.39 46.12L15.62 46.12C14.93 46.12 14.38 45.56 14.38 44.88L14.38 33.08C14.38 32.4 14.93 31.84 15.62 31.84L32.39 31.84ZM28.91 28.18L28.91 21.12C30.49 19.79 32.82 19.71 34.56 20.88L28.91 28.18ZM28.86 18.91C28.63 14.09 28.16 9.71 27.51 6.44C27.17 4.78 26.81 3.46 26.41 2.46C28.08 3.25 29.67 4.85 31.04 7.15C32.87 10.23 34.16 14.32 34.73 18.82C32.85 17.95 30.66 17.98 28.86 18.91Z" fill="#6E6A63" fill-opacity="1.000000" fill-rule="nonzero"/>
	</g>
</svg>
