<svg width="48.000000" height="48.000000" viewBox="0 0 48 48" fill="none" xmlns="http://www.w3.org/2000/svg" xmlns:xlink="http://www.w3.org/1999/xlink">
	<desc>
			Created with Pixso.
	</desc>
	<defs>
		<clipPath id="clip5_79">
			<rect id="compass_p8faked6fajo" width="48.000000" height="48.000000" fill="white" fill-opacity="0"/>
		</clipPath>
	</defs>
	<g clip-path="url(#clip5_79)">
		<path id="path" d="M35.97 12.73C35.97 12.72 35.97 12.71 35.97 12.7C35.96 12.69 35.96 12.67 35.96 12.66C35.96 12.65 35.96 12.64 35.96 12.63C35.95 12.61 35.95 12.6 35.95 12.59C35.94 12.58 35.94 12.57 35.94 12.56C35.93 12.55 35.93 12.53 35.93 12.52C35.92 12.51 35.92 12.5 35.91 12.49C35.91 12.48 35.9 12.47 35.9 12.46C35.89 12.44 35.89 12.43 35.88 12.42C35.88 12.41 35.88 12.41 35.88 12.41C35.87 12.4 35.87 12.4 35.87 12.39C35.86 12.38 35.85 12.37 35.84 12.35C35.84 12.34 35.83 12.34 35.82 12.33C35.82 12.32 35.81 12.3 35.8 12.29C35.79 12.29 35.78 12.28 35.78 12.27C35.77 12.26 35.76 12.25 35.75 12.24C35.74 12.23 35.73 12.22 35.72 12.21C35.71 12.21 35.7 12.2 35.7 12.19C35.68 12.18 35.67 12.17 35.66 12.17C35.65 12.16 35.65 12.15 35.64 12.15C35.62 12.14 35.61 12.13 35.6 12.13C35.59 12.12 35.59 12.12 35.58 12.11C35.58 12.11 35.58 12.11 35.57 12.11C35.56 12.1 35.55 12.1 35.54 12.09C35.52 12.09 35.51 12.08 35.5 12.08C35.49 12.07 35.48 12.07 35.47 12.06C35.46 12.06 35.44 12.06 35.43 12.05C35.42 12.05 35.41 12.05 35.4 12.04C35.39 12.04 35.38 12.04 35.36 12.03C35.35 12.03 35.34 12.03 35.33 12.03C35.32 12.03 35.3 12.03 35.29 12.02C35.28 12.02 35.27 12.02 35.25 12.02C35.24 12.02 35.23 12.02 35.22 12.02C35.2 12.02 35.19 12.02 35.18 12.02C35.17 12.02 35.16 12.02 35.15 12.02C35.13 12.03 35.12 12.03 35.1 12.03C35.09 12.03 35.08 12.03 35.08 12.03C35.06 12.04 35.04 12.04 35.03 12.05C35.02 12.05 35.01 12.05 35.01 12.05C34.99 12.06 34.98 12.06 34.96 12.07C34.95 12.07 34.94 12.07 34.94 12.08C34.92 12.08 34.91 12.09 34.9 12.09C34.89 12.1 34.88 12.1 34.87 12.11C34.86 12.11 34.86 12.11 34.85 12.11L20.42 20.13C20.42 20.13 20.41 20.14 20.41 20.14C20.4 20.15 20.39 20.15 20.38 20.16C20.38 20.16 20.37 20.16 20.37 20.17C20.36 20.17 20.35 20.18 20.34 20.18C20.33 20.19 20.33 20.2 20.32 20.2C20.31 20.21 20.31 20.21 20.31 20.21C20.3 20.22 20.29 20.23 20.28 20.23C20.28 20.24 20.27 20.25 20.26 20.25C20.25 20.26 20.24 20.28 20.23 20.29C20.22 20.29 20.22 20.3 20.21 20.31C20.21 20.31 20.21 20.31 20.2 20.32C20.2 20.33 20.19 20.34 20.18 20.34C20.18 20.35 20.17 20.36 20.17 20.37C20.16 20.37 20.16 20.38 20.16 20.38C20.15 20.39 20.15 20.4 20.14 20.41C20.14 20.41 20.13 20.42 20.13 20.42L12.11 34.85C12.11 34.86 12.11 34.86 12.11 34.86C12.1 34.88 12.1 34.89 12.09 34.9C12.09 34.91 12.08 34.92 12.08 34.93C12.07 34.94 12.07 34.96 12.06 34.97C12.06 34.98 12.06 34.99 12.05 35C12.05 35.01 12.05 35.02 12.04 35.03C12.04 35.05 12.04 35.06 12.03 35.08C12.03 35.09 12.03 35.09 12.03 35.1C12.03 35.12 12.02 35.13 12.02 35.15C12.02 35.16 12.02 35.17 12.02 35.18C12.02 35.19 12.02 35.21 12.02 35.22C12.02 35.23 12.02 35.24 12.02 35.26C12.02 35.27 12.02 35.28 12.02 35.29C12.02 35.3 12.03 35.32 12.03 35.33C12.03 35.34 12.03 35.35 12.03 35.36C12.04 35.38 12.04 35.39 12.04 35.4C12.05 35.41 12.05 35.42 12.05 35.43C12.06 35.45 12.06 35.46 12.06 35.47C12.07 35.48 12.07 35.49 12.08 35.5C12.08 35.51 12.09 35.52 12.09 35.53C12.1 35.55 12.1 35.56 12.11 35.57C12.11 35.58 12.11 35.58 12.11 35.58C12.12 35.59 12.12 35.59 12.12 35.59C12.13 35.62 12.15 35.64 12.17 35.66C12.17 35.67 12.17 35.67 12.17 35.67C12.19 35.7 12.21 35.72 12.23 35.74C12.24 35.75 12.24 35.75 12.25 35.76C12.27 35.77 12.28 35.79 12.3 35.8C12.31 35.81 12.32 35.82 12.33 35.82C12.34 35.84 12.36 35.85 12.38 35.86C12.39 35.86 12.39 35.87 12.4 35.87C12.41 35.88 12.43 35.89 12.45 35.9C12.46 35.9 12.47 35.91 12.49 35.91C12.51 35.92 12.53 35.93 12.55 35.94C12.56 35.94 12.57 35.94 12.58 35.95C12.61 35.95 12.64 35.96 12.66 35.96C12.67 35.96 12.67 35.96 12.67 35.96C12.71 35.97 12.74 35.97 12.77 35.97C12.8 35.97 12.84 35.97 12.87 35.96C12.87 35.96 12.88 35.96 12.88 35.96C12.91 35.96 12.94 35.95 12.96 35.95C12.97 35.94 12.98 35.94 12.99 35.94C13.01 35.93 13.03 35.92 13.05 35.91C13.07 35.91 13.08 35.9 13.09 35.9C13.11 35.89 13.12 35.88 13.14 35.88L27.57 27.86C27.57 27.86 27.58 27.85 27.59 27.85C27.6 27.84 27.61 27.83 27.62 27.82C27.63 27.82 27.64 27.81 27.65 27.81C27.65 27.8 27.66 27.8 27.67 27.79C27.67 27.79 27.68 27.78 27.68 27.78C27.69 27.77 27.71 27.76 27.72 27.75C27.72 27.74 27.73 27.74 27.73 27.73C27.74 27.72 27.76 27.7 27.77 27.69C27.78 27.68 27.78 27.68 27.79 27.67C27.79 27.67 27.8 27.66 27.8 27.66C27.8 27.65 27.8 27.65 27.81 27.65C27.81 27.64 27.83 27.62 27.83 27.61C27.84 27.6 27.84 27.59 27.85 27.58C27.85 27.58 27.86 27.57 27.86 27.57L35.88 13.14C35.88 13.13 35.88 13.13 35.88 13.13C35.89 13.11 35.89 13.1 35.9 13.09C35.9 13.08 35.91 13.07 35.91 13.06C35.92 13.05 35.92 13.03 35.93 13.02C35.93 13.01 35.93 13 35.94 12.99C35.94 12.98 35.94 12.97 35.95 12.96C35.95 12.94 35.95 12.93 35.96 12.91C35.96 12.91 35.96 12.9 35.96 12.89C35.96 12.87 35.96 12.86 35.97 12.84C35.97 12.83 35.97 12.82 35.97 12.81C35.97 12.8 35.97 12.78 35.97 12.77C35.97 12.76 35.97 12.75 35.97 12.73ZM20.96 22.02L21.86 22.92C21.87 22.93 21.88 22.94 21.89 22.95C21.73 23.26 21.64 23.62 21.64 24C21.64 25.29 22.7 26.35 24 26.35C24.37 26.35 24.73 26.26 25.04 26.1C25.05 26.11 25.06 26.12 25.07 26.13L25.97 27.03L14.71 33.28L20.96 22.02ZM24 24.85C23.53 24.85 23.14 24.46 23.14 24C23.14 23.53 23.53 23.14 24 23.14C24.46 23.14 24.85 23.53 24.85 24C24.85 24.46 24.46 24.85 24 24.85ZM27.03 25.97L26.13 25.07C26.12 25.06 26.11 25.05 26.1 25.04C26.26 24.73 26.35 24.37 26.35 24C26.35 22.7 25.29 21.64 24 21.64C23.62 21.64 23.26 21.73 22.95 21.89C22.94 21.88 22.93 21.87 22.92 21.86L22.02 20.96L33.28 14.71L27.03 25.97Z" fill="#6E6A63" fill-opacity="1.000000" fill-rule="nonzero"/>
		<path id="path" d="M40.97 7.02C36.43 2.49 30.41 0 24 0C17.58 0 11.56 2.49 7.02 7.02C2.49 11.56 0 17.58 0 24C0 30.41 2.49 36.43 7.02 40.97C11.56 45.5 17.58 48 24 48C30.41 48 36.43 45.5 40.97 40.97C45.5 36.43 48 30.41 48 24C48 17.58 45.5 11.56 40.97 7.02ZM39.9 39.9C35.65 44.15 30 46.49 24 46.49C17.99 46.49 12.34 44.15 8.09 39.9C3.84 35.65 1.5 30 1.5 24C1.5 17.99 3.84 12.34 8.09 8.09C12.34 3.84 17.99 1.5 24 1.5C30 1.5 35.65 3.84 39.9 8.09C44.15 12.34 46.49 17.99 46.49 24C46.49 30 44.15 35.65 39.9 39.9Z" fill="#6E6A63" fill-opacity="1.000000" fill-rule="nonzero"/>
		<path id="path" d="M24 3.2C12.53 3.2 3.2 12.53 3.2 24C3.2 35.46 12.53 44.79 24 44.79C35.46 44.79 44.79 35.46 44.79 24C44.79 12.53 35.46 3.2 24 3.2ZM24 43.29C13.36 43.29 4.7 34.63 4.7 24C4.7 13.36 13.36 4.7 24 4.7C34.63 4.7 43.29 13.36 43.29 24C43.29 34.63 34.63 43.29 24 43.29Z" fill="#6E6A63" fill-opacity="1.000000" fill-rule="nonzero"/>
		<path id="path" d="M24 11.12C24.41 11.12 24.75 10.78 24.75 10.37L24.75 7.16C24.75 6.74 24.41 6.41 24 6.41C23.58 6.41 23.24 6.74 23.24 7.16L23.24 10.37C23.24 10.78 23.58 11.12 24 11.12Z" fill="#6E6A63" fill-opacity="1.000000" fill-rule="nonzero"/>
		<path id="path" d="M24 36.87C23.58 36.87 23.24 37.21 23.24 37.62L23.24 40.83C23.24 41.25 23.58 41.58 24 41.58C24.41 41.58 24.75 41.25 24.75 40.83L24.75 37.62C24.75 37.21 24.41 36.87 24 36.87Z" fill="#6E6A63" fill-opacity="1.000000" fill-rule="nonzero"/>
		<path id="path" d="M10.37 23.24L7.16 23.24C6.74 23.24 6.41 23.58 6.41 24C6.41 24.41 6.74 24.75 7.16 24.75L10.37 24.75C10.78 24.75 11.12 24.41 11.12 24C11.12 23.58 10.78 23.24 10.37 23.24Z" fill="#6E6A63" fill-opacity="1.000000" fill-rule="nonzero"/>
		<path id="path" d="M40.83 23.24L37.62 23.24C37.21 23.24 36.87 23.58 36.87 24C36.87 24.41 37.21 24.75 37.62 24.75L40.83 24.75C41.25 24.75 41.58 24.41 41.58 24C41.58 23.58 41.25 23.24 40.83 23.24Z" fill="#6E6A63" fill-opacity="1.000000" fill-rule="nonzero"/>
	</g>
</svg>
