<svg width="16.000000" height="16.000000" viewBox="0 0 16 16" fill="none" xmlns="http://www.w3.org/2000/svg" xmlns:xlink="http://www.w3.org/1999/xlink">
	<desc>
			Created with Pixso.
	</desc>
	<defs>
		<clipPath id="clip24_3">
			<rect id="barn-building-farm-svgrepo-com" width="16.000000" height="16.000004" fill="white" fill-opacity="0"/>
		</clipPath>
	</defs>
	<g clip-path="url(#clip24_3)">
		<path id="path" d="M15.95 8.29L14.45 4.29C14.4 4.19 14.35 4.09 14.25 4.04L8.24 0.54C8.09 0.44 7.89 0.44 7.74 0.54L1.74 4.04C1.64 4.14 1.54 4.19 1.54 4.29L0.04 8.29C-0.06 8.5 -7.63e-6 8.64 0.09 8.79C0.19 8.89 0.34 9 0.49 9L1.99 9L1.99 15C1.99 15.3 2.19 15.5 2.49 15.5L5.49 15.5C5.64 15.5 5.74 15.45 5.84 15.35L7.99 13.2L10.14 15.35C10.25 15.45 10.4 15.5 10.5 15.5L13.5 15.5C13.8 15.5 14 15.3 14 15L14 9L15.5 9C15.65 9 15.8 8.89 15.9 8.79C16 8.64 16.04 8.5 15.95 8.29ZM5.04 15.2C5.04 15.25 5.09 15.3 5.14 15.35C5.19 15.4 5.24 15.45 5.29 15.45C5.19 15.4 5.09 15.3 5.04 15.2ZM5.14 14.65C5.04 14.75 4.99 14.85 4.99 15L4.99 10C4.99 10.14 5.04 10.25 5.14 10.35L7.29 12.5L5.14 14.65ZM10.5 9.5C10.35 9.5 10.25 9.54 10.14 9.64L7.99 11.8L5.84 9.64C5.74 9.54 5.64 9.5 5.49 9.5L10.5 9.5ZM5.99 8L5.99 5.5C5.99 5.19 6.19 5 6.49 5L9.49 5C9.8 5 9.99 5.19 9.99 5.5L9.99 8C9.99 8.29 9.8 8.5 9.49 8.5L6.49 8.5C6.19 8.5 5.99 8.29 5.99 8ZM5.04 9.79C5.09 9.69 5.19 9.59 5.29 9.54C5.24 9.54 5.19 9.59 5.14 9.64C5.09 9.69 5.04 9.75 5.04 9.79ZM10.7 15.45C10.75 15.45 10.8 15.4 10.85 15.35C10.9 15.3 10.95 15.25 10.95 15.2C10.9 15.3 10.8 15.4 10.7 15.45ZM11 15C11 14.85 10.95 14.75 10.85 14.65L8.69 12.5L10.85 10.35C10.95 10.25 11 10.1 11 10L11 15ZM10.7 9.54C10.8 9.59 10.9 9.69 10.95 9.79C10.95 9.75 10.9 9.69 10.85 9.64C10.8 9.59 10.75 9.54 10.7 9.54ZM13.85 8L12.95 5.34C12.9 5.25 12.85 5.14 12.7 5.04L8.19 2.54C8.05 2.44 7.84 2.44 7.69 2.54L3.19 5.04C3.09 5.09 2.99 5.19 2.94 5.34L2.14 8L1.19 8L2.39 4.84L7.99 1.59L13.6 4.84L14.8 8L13.85 8Z" fill="#999691" fill-opacity="1.000000" fill-rule="nonzero"/>
	</g>
</svg>
