<svg width="345" height="365" viewBox="0 0 345 365" fill="none" xmlns="http://www.w3.org/2000/svg">
<path fill-rule="evenodd" clip-rule="evenodd" d="M291.576 59.3014L170.874 0L53.7825 59.3334L0 170.093L170.883 364.183L344.341 170.162L291.576 59.3014ZM137.18 66.8989L163.926 33.9979V49.621L137.18 66.8989ZM100.396 108.067L43.6981 160.691L79.9256 161.29L100.396 108.067ZM98.0435 175.382L163.926 285.696V175.382H98.0435ZM178.926 175.382V286.607L248.055 175.382H178.926ZM264.462 161.32L299.812 160.71L245.742 111.82L264.462 161.32ZM203.265 64.3915L178.926 34.1583V48.9417L203.265 64.3915ZM178.926 66.7087L223.295 94.8737L248.071 160.382H178.926V66.7087ZM163.926 67.4788V160.382H96.346L121.549 94.8552L163.926 67.4788ZM81.1274 176.312L163.926 314.951V333.581L24.638 175.378L81.1274 176.312ZM102.938 85.2426L20.9058 161.38L65.0691 70.43L149.939 27.4245L102.938 85.2426ZM265.139 176.31L178.926 315.023V332.681L319.563 175.372L265.139 176.31ZM280.276 70.4621L324.026 162.382L240.896 87.2165L192.817 27.4931L280.276 70.4621Z" fill="#D4B553"/>
</svg>
