<svg width="16.000000" height="16.000000" viewBox="0 0 16 16" fill="none" xmlns="http://www.w3.org/2000/svg" xmlns:xlink="http://www.w3.org/1999/xlink">
	<desc>
			Created with Pixso.
	</desc>
	<defs>
		<clipPath id="clip25_5">
			<rect id="fist-svgrepo-com" width="16.000000" height="16.000004" fill="white" fill-opacity="0"/>
		</clipPath>
	</defs>
	<g clip-path="url(#clip25_5)">
		<path id="path" d="M10.3 7.36L12.26 4.78L13.6 5.79L11.64 8.38L10.3 7.36ZM9.9 7.06L11.99 4.31L10.58 3.25L8.49 6L9.9 7.06ZM9.04 4.01L8.44 5.24L10.22 2.9L8.89 1.89L7.76 3.38L9.04 4.01ZM8.39 1.72L6.93 0.61L5.62 2.34L7.3 3.16L8.39 1.72ZM11.74 9.08L7.39 5.87L7.08 5.9L7.22 5.96L9.17 10.29L8.65 10.36L6.85 6.34L5.6 5.79L5.47 4.82L6.71 5.43L7.84 5.33L8.37 4.24L4.91 2.55L2.39 6.06L5.54 10.83L4.84 15.38L10.65 15.38L10.65 11.64L11.75 10.11L12.09 8.61L11.74 9.08Z" fill="#999691" fill-opacity="1.000000" fill-rule="nonzero"/>
	</g>
</svg>
