<svg width="1506" height="382" viewBox="0 0 1506 382" fill="none" xmlns="http://www.w3.org/2000/svg">
<path fill-rule="evenodd" clip-rule="evenodd" d="M301.576 68.3014L180.874 9L63.7825 68.3334L10 179.093L180.883 373.183L354.341 179.162L301.576 68.3014ZM147.18 75.8989L173.926 42.9979V58.621L147.18 75.8989ZM110.396 117.067L53.6981 169.691L89.9256 170.29L110.396 117.067ZM108.043 184.382L173.926 294.696V184.382H108.043ZM188.926 184.382V295.607L258.055 184.382H188.926ZM274.462 170.32L309.812 169.71L255.742 120.82L274.462 170.32ZM213.265 73.3915L188.926 43.1583V57.9417L213.265 73.3915ZM188.926 75.7087L233.295 103.874L258.071 169.382H188.926V75.7087ZM173.926 76.4788V169.382H106.346L131.549 103.855L173.926 76.4788ZM91.1274 185.312L173.926 323.951V342.581L34.638 184.378L91.1274 185.312ZM112.938 94.2426L30.9058 170.38L75.0691 79.43L159.939 36.4245L112.938 94.2426ZM275.139 185.31L188.926 324.023V341.681L329.563 184.372L275.139 185.31ZM290.276 79.4621L334.026 171.382L250.896 96.2165L202.817 36.4931L290.276 79.4621Z" fill="#D4B553"/>
<path d="M1338.99 133.129V96.6543H1495.72V133.129H1439.62V301H1395.09V133.129H1338.99Z" fill="#FFEDD5"/>
<path d="M1266.04 301V96.6543H1310.57V301H1266.04Z" fill="#FFEDD5"/>
<path d="M1054.51 198.9C1054.51 181.029 1056.61 165.502 1060.81 152.318C1065.01 139.135 1071.12 128.197 1079.12 119.506C1087.23 110.814 1097.19 104.32 1109.01 100.023C1120.92 95.7266 1134.49 93.5781 1149.73 93.5781C1156.76 93.5781 1163.6 94.0176 1170.24 94.8965C1176.97 95.7754 1183.37 96.9961 1189.43 98.5586C1195.48 100.023 1201.1 101.781 1206.27 103.832C1211.54 105.785 1216.18 107.836 1220.19 109.984L1207.3 140.746C1203.2 138.988 1198.85 137.426 1194.26 136.059C1189.67 134.691 1184.98 133.568 1180.2 132.689C1175.41 131.811 1170.63 131.127 1165.84 130.639C1161.06 130.15 1156.42 129.906 1151.93 129.906C1143.72 129.906 1136.3 131.371 1129.66 134.301C1123.02 137.133 1117.36 141.381 1112.67 147.045C1107.98 152.611 1104.37 159.643 1101.83 168.139C1099.29 176.537 1098.02 186.303 1098.02 197.436C1098.02 221.264 1102.61 238.939 1111.79 250.463C1121.07 261.889 1134.25 267.602 1151.34 267.602C1156.22 267.602 1160.96 267.309 1165.55 266.723C1170.14 266.039 1174.48 265.16 1178.59 264.086V233.178V197.875H1220.48V292.65C1215.79 294.408 1210.52 296.02 1204.66 297.484C1198.9 298.852 1192.89 300.023 1186.64 301C1180.39 301.977 1174.04 302.709 1167.6 303.197C1161.25 303.783 1155.15 304.076 1149.29 304.076C1118.33 304.076 1094.8 295.531 1078.68 278.441C1062.57 261.254 1054.51 234.74 1054.51 198.9Z" fill="#FFEDD5"/>
<path d="M840.646 301V96.6543H889.426C893.723 101.732 898.215 107.934 902.902 115.258C907.688 122.484 912.57 130.346 917.551 138.842C922.531 147.338 927.561 156.127 932.639 165.209C937.717 174.193 942.697 182.934 947.58 191.43C952.561 199.828 957.346 207.689 961.936 215.014C966.525 222.338 970.822 228.49 974.826 233.471H976.584L975.705 96.6543H1020.24V301H972.482C967.6 295.336 962.668 288.842 957.688 281.518C952.805 274.096 947.873 266.283 942.893 258.08C937.912 249.877 932.932 241.527 927.951 233.031C922.971 224.438 918.088 216.137 913.303 208.129C908.518 200.121 903.83 192.602 899.24 185.57C894.65 178.539 890.256 172.436 886.057 167.26H884.299L885.178 301H840.646Z" fill="#FFEDD5"/>
<path d="M765.061 302.465C763.498 295.629 761.789 288.354 759.934 280.639C758.078 272.924 756.076 264.867 753.928 256.469H671.604C669.26 265.551 667.111 273.998 665.158 281.811C663.205 289.623 661.545 296.508 660.178 302.465L614.035 301C615.891 292.699 618.381 282.836 621.506 271.41C624.631 259.984 628.146 247.826 632.053 234.936C635.959 221.947 640.109 208.715 644.504 195.238C648.996 181.762 653.488 168.822 657.98 156.42C662.473 144.018 666.867 132.641 671.164 122.289C675.559 111.938 679.562 103.393 683.176 96.6543H742.209C744.943 101.635 747.873 107.738 750.998 114.965C754.221 122.094 757.492 129.955 760.812 138.549C764.133 147.143 767.502 156.322 770.92 166.088C774.436 175.756 777.854 185.619 781.174 195.678C784.494 205.639 787.668 215.6 790.695 225.561C793.82 235.521 796.652 245.092 799.191 254.271C801.828 263.451 804.172 272.045 806.223 280.053C808.273 287.963 809.934 294.945 811.203 301L765.061 302.465ZM710.568 133.129C708.029 139.086 705.49 145.58 702.951 152.611C700.51 159.545 698.02 166.771 695.48 174.291C693.039 181.811 690.598 189.574 688.156 197.582C685.715 205.492 683.371 213.402 681.125 221.312H744.26C739.963 206.371 735.324 191.43 730.344 176.488C725.461 161.547 720.285 147.094 714.816 133.129H710.568Z" fill="#FFEDD5"/>
<path d="M463.01 301V96.6543H537.277C549.289 96.6543 560.08 98.1191 569.65 101.049C579.221 103.881 587.277 108.178 593.82 113.939C600.461 119.604 605.539 126.732 609.055 135.326C612.57 143.822 614.328 153.686 614.328 164.916C614.328 177.611 612.229 188.549 608.029 197.729C603.928 206.908 598.264 214.477 591.037 220.434C583.908 226.293 575.51 230.639 565.842 233.471C556.271 236.303 545.969 237.719 534.934 237.719H507.688V301H463.01ZM507.688 203.441H534.055C539.426 203.441 544.357 202.709 548.85 201.244C553.342 199.682 557.199 197.387 560.422 194.359C563.742 191.332 566.281 187.572 568.039 183.08C569.895 178.588 570.822 173.363 570.822 167.406C570.822 160.766 569.846 155.199 567.893 150.707C565.939 146.117 563.254 142.455 559.836 139.721C556.418 136.889 552.365 134.887 547.678 133.715C543.088 132.445 538.156 131.811 532.883 131.811H507.688V203.441Z" fill="#FFEDD5"/>
</svg>
