<svg width="16.000000" height="16.000000" viewBox="0 0 16 16" fill="none" xmlns="http://www.w3.org/2000/svg" xmlns:xlink="http://www.w3.org/1999/xlink">
	<desc>
			Created with Pixso.
	</desc>
	<defs>
		<clipPath id="clip25_7">
			<rect id="school-bag-svgrepo-com" width="16.000000" height="16.000004" fill="white" fill-opacity="0"/>
		</clipPath>
	</defs>
	<g clip-path="url(#clip25_7)">
		<path id="path" d="M4.48 0.79C4.22 0.79 3.91 0.8 3.66 0.85C3.51 0.88 3.39 0.93 3.33 0.97C3.29 1 3.28 1.01 3.27 1.02L4.01 2.87C4.01 2.87 4.01 2.87 4.01 2.87C4.17 2.64 4.37 2.45 4.65 2.45L5.31 2.45L4.48 0.79ZM11.51 0.79L10.68 2.45L11.34 2.45C11.62 2.45 11.82 2.64 11.98 2.88L12.72 1.02C12.71 1.01 12.7 1 12.66 0.97C12.6 0.93 12.48 0.88 12.33 0.85C12.08 0.8 11.77 0.79 11.51 0.79ZM7.99 1.2C7.02 1.2 6.04 1.71 6.04 2.73L6.6 2.73C6.6 1.44 9.39 1.44 9.39 2.73L9.95 2.73C9.95 1.71 8.97 1.2 7.99 1.2ZM4.65 3.01C4.65 3.01 4.58 3.03 4.47 3.19C4.36 3.35 4.23 3.61 4.11 3.96C3.87 4.65 3.63 5.65 3.43 6.82C3.04 9.16 2.78 12.19 2.78 14.94C2.82 14.97 2.92 15.01 3.05 15.05C3.32 15.14 3.74 15.22 4.25 15.28C5.26 15.4 6.63 15.46 7.99 15.46C9.36 15.46 10.73 15.4 11.74 15.28C12.25 15.22 12.67 15.14 12.94 15.05C13.07 15.01 13.17 14.97 13.21 14.94C13.21 12.28 12.95 9.25 12.56 6.89C12.36 5.7 12.12 4.69 11.88 3.98C11.75 3.63 11.63 3.36 11.52 3.2C11.4 3.03 11.33 3.01 11.34 3.01L4.65 3.01ZM7.99 3.71C8.72 3.71 9.44 3.84 10.03 4.11C10.63 4.39 11.12 4.82 11.27 5.43L11.27 5.43L12.25 9.69L3.74 9.69L4.72 5.43L4.72 5.43C4.87 4.82 5.36 4.39 5.96 4.11C6.55 3.84 7.27 3.71 7.99 3.71ZM7.99 4.28C7.34 4.28 6.69 4.4 6.19 4.63C5.69 4.85 5.37 5.17 5.27 5.56L4.45 9.13L11.54 9.13L10.72 5.56C10.62 5.17 10.3 4.85 9.8 4.63C9.3 4.4 8.65 4.28 7.99 4.28ZM5.99 5.71L9.99 5.71L9.99 6.28L7.28 6.28L7.28 7.11L6.71 7.11L6.71 6.28L5.99 6.28L5.99 5.71ZM3.81 10.52L4.38 10.52C4.38 11.61 4.52 12.41 4.76 12.9C5.01 13.39 5.3 13.58 5.77 13.58L10.22 13.58C10.69 13.58 10.98 13.39 11.23 12.9C11.47 12.41 11.61 11.61 11.61 10.52L12.18 10.52C12.18 11.66 12.04 12.53 11.73 13.15C11.41 13.78 10.87 14.14 10.22 14.14L5.77 14.14C5.12 14.14 4.58 13.78 4.26 13.15C3.95 12.53 3.81 11.66 3.81 10.52Z" fill="#999691" fill-opacity="1.000000" fill-rule="nonzero"/>
	</g>
</svg>
