<svg width="39.536682" height="39.966980" viewBox="0 0 39.5367 39.967" fill="none" xmlns="http://www.w3.org/2000/svg" xmlns:xlink="http://www.w3.org/1999/xlink">
	<desc>
			Created with Pixso.
	</desc>
	<defs/>
	<rect id="steam" width="39.536682" height="39.966980" fill="#FFFFFF" fill-opacity="0"/>
	<path id="path" d="M19.73 0C9.33 0 0.8 8.09 0 18.38L10.61 22.8C11.51 22.18 12.59 21.82 13.76 21.82C13.87 21.82 13.97 21.82 14.08 21.83L18.8 14.92L18.8 14.83C18.8 10.67 22.15 7.29 26.26 7.29C30.38 7.29 33.73 10.67 33.73 14.83C33.73 18.98 30.38 22.37 26.26 22.37C26.21 22.37 26.15 22.36 26.09 22.36L19.36 27.21C19.37 27.3 19.37 27.39 19.37 27.48C19.37 30.6 16.85 33.13 13.76 33.13C11.05 33.13 8.78 31.18 8.27 28.59L0.68 25.42C3.03 33.81 10.66 39.96 19.73 39.96C30.67 39.96 39.53 31.01 39.53 19.98C39.53 8.94 30.67 0 19.73 0ZM12.4 30.32L9.97 29.3C10.4 30.21 11.15 30.97 12.14 31.38C14.28 32.28 16.75 31.26 17.64 29.1C18.07 28.05 18.07 26.9 17.65 25.85C17.22 24.8 16.41 23.98 15.38 23.55C14.35 23.11 13.24 23.13 12.27 23.5L14.79 24.55C16.37 25.21 17.11 27.04 16.45 28.63C15.8 30.23 13.98 30.98 12.4 30.32ZM31.24 14.83C31.24 12.06 29.01 9.81 26.26 9.81C23.52 9.81 21.29 12.06 21.29 14.83C21.29 17.6 23.52 19.85 26.26 19.85C29.01 19.85 31.24 17.6 31.24 14.83ZM22.53 14.82C22.53 12.74 24.21 11.05 26.27 11.05C28.34 11.05 30.01 12.74 30.01 14.82C30.01 16.9 28.34 18.59 26.27 18.59C24.21 18.59 22.53 16.9 22.53 14.82Z" fill="#6E6A63" fill-opacity="1.000000" fill-rule="nonzero"/>
</svg>
