<svg width="130.734375" height="114.326912" viewBox="0 0 130.734 114.327" fill="none" xmlns="http://www.w3.org/2000/svg" xmlns:xlink="http://www.w3.org/1999/xlink">
	<desc>
			Created with Pixso.
	</desc>
	<defs/>
	<path id="path" d="M46.78 13.96C47.52 8.65 48.29 1.01 54.92 0.14C68.96 -0.14 83.01 0.09 97.05 0.03C100.04 -0.31 103.12 1.89 103.2 5.01C103.09 8.05 102.33 11.01 101.82 13.99C83.47 13.99 65.13 13.99 46.78 13.96Z" fill="#EB0002" fill-opacity="1.000000" fill-rule="nonzero"/>
	<path id="path" d="M7.38 38.1C7.84 34.23 10.83 30.38 14.94 30.21C19.39 29.97 23.85 30.19 28.3 30.13C26.49 38.78 24.58 47.42 22.78 56.08C21.96 59.11 22.78 62.64 25.37 64.58C28.38 66.9 32.44 65.99 35.97 66.19C54.17 66.31 72.39 65.93 90.58 66.42C89.41 72.13 88.55 77.91 87.31 83.6C87.05 85.16 85.36 85.69 83.97 85.5C57.97 85.49 31.97 85.54 5.97 85.48C2.51 85.88 -0.67 82.53 0.12 79.1C2.41 65.41 4.99 51.77 7.38 38.1Z" fill="#EB0002" fill-opacity="1.000000" fill-rule="nonzero"/>
	<path id="path" d="M43.38 32.43C43.47 31.15 44.46 29.88 45.88 30.11C71.58 30.03 97.3 30.19 123.01 30.11C125.15 30.16 127.68 29.98 129.25 31.75C131 33.38 130.9 35.93 130.46 38.08C128.08 51.25 125.74 64.43 123.37 77.6C122.9 81.39 120.02 85.17 115.99 85.41C111.73 85.67 107.46 85.42 103.19 85.49C104.71 76.69 106.49 67.92 107.92 59.1C108.89 54.83 105.44 50.22 101.02 50.17C80.69 49.89 60.34 50.25 40.01 49.94C41.04 44.08 42.2 38.25 43.38 32.43Z" fill="#EB0002" fill-opacity="1.000000" fill-rule="nonzero"/>
	<path id="path" d="M30.04 101.64C48.4 101.62 66.75 101.62 85.1 101.64C84.45 105.35 84.44 109.76 81.26 112.36C79.34 114.27 76.49 114.34 73.96 114.32C60.96 114.24 47.96 114.34 34.96 114.27C32.27 114.51 29.58 112.67 29.09 109.97C28.87 107.16 29.64 104.4 30.04 101.64Z" fill="#EB0002" fill-opacity="1.000000" fill-rule="nonzero"/>
</svg>
