<svg width="42.000000" height="42.000000" viewBox="0 0 42 42" fill="none" xmlns="http://www.w3.org/2000/svg" xmlns:xlink="http://www.w3.org/1999/xlink">
	<desc>
			Created with Pixso.
	</desc>
	<defs/>
	<path id="path" d="M21.84 1C30.88 1 35.4 1 38.2 3.8C41 6.6 41 11.12 41 20.16L41 21.84C41 30.88 41 35.4 38.2 38.2C35.4 41 30.88 41 21.84 41L20.16 41C11.12 41 6.6 41 3.79 38.2C1 35.4 1 30.88 1 21.84L1 20.15C1 11.11 1 6.6 3.79 3.8C6.6 1 11.12 1 20.16 1L21.84 1Z" fill="#0077FF" fill-opacity="0" fill-rule="nonzero"/>
	<path id="path" d="M38.2 3.8C41 6.6 41 11.12 41 20.16L41 21.84C41 30.88 41 35.4 38.2 38.2C35.4 41 30.88 41 21.84 41L20.16 41C11.12 41 6.6 41 3.79 38.2C1 35.4 1 30.88 1 21.84L1 20.15C1 11.11 1 6.6 3.79 3.8C6.6 1 11.12 1 20.16 1L21.84 1C30.88 1 35.4 1 38.2 3.8Z" stroke="#6E6A63" stroke-opacity="1.000000" stroke-width="2.000000"/>
	<path id="path" d="M1.12 12.24C1 14.39 1 17 1 20.15L1 21.83C1 24.23 1 26.28 1.04 28.07C6.28 30.64 13.32 32.2 21 32.2C28.68 32.2 35.72 30.64 40.96 28.08C41 26.28 41 24.2 41 21.84L41 20.16C41 17 41 14.4 40.88 12.2L1.12 12.24Z" fill="#0009B4" fill-opacity="0" fill-rule="nonzero"/>
	<path id="path" d="M1 20.15L1 21.83C1 24.23 1 26.28 1.04 28.07C6.28 30.64 13.32 32.2 21 32.2C28.68 32.2 35.72 30.64 40.96 28.08C41 26.28 41 24.2 41 21.84L41 20.16C41 17 41 14.4 40.88 12.2L1.12 12.24C1 14.39 1 17 1 20.15Z" stroke="#6E6A63" stroke-opacity="1.000000" stroke-width="2.000000"/>
	<circle id="circle" cx="28.805115" cy="21.205154" r="3.805128" fill="#000000" fill-opacity="0"/>
	<circle id="circle" cx="28.805115" cy="21.205154" r="3.805128" stroke="#6E6A63" stroke-opacity="1.000000" stroke-width="2.000000"/>
	<path id="path" d="" fill="#000000" fill-opacity="0" fill-rule="nonzero"/>
	<path id="path" d="M17.79 25.8L9 17M17.79 17L9 25.8" stroke="#6E6A63" stroke-opacity="1.000000" stroke-width="2.000000"/>
</svg>
