<svg width="110.199951" height="110.199951" viewBox="0 0 110.2 110.2" fill="none" xmlns="http://www.w3.org/2000/svg" xmlns:xlink="http://www.w3.org/1999/xlink">
	<desc>
			Created with Pixso.
	</desc>
	<defs/>
	<path id="path" d="" fill="#FF2B42" fill-opacity="1.000000" fill-rule="nonzero"/>
	<path id="path" d="M110.1 57.4C110.1 82.3 110.1 94.7 102.4 102.5C94.7 110.2 82.2 110.2 57.3 110.2L52.7 110.2C27.8 110.2 15.4 110.2 7.59 102.5C0 94.7 0 82.2 0 57.4L0 52.8C0 27.9 0 15.5 7.69 7.69C15.5 0 27.9 0 52.8 0L57.4 0C82.3 0 94.7 0 102.5 7.69C110.2 15.4 110.2 27.9 110.2 52.8L110.1 57.4Z" fill="#0077FF" fill-opacity="1.000000" fill-rule="evenodd"/>
	<path id="path" d="M45.6 0C65.8 0.09 76.5 0.8 83.5 7.69C91.2 15.4 91.2 27.9 91.2 52.8L91.2 57.4C91.2 82.3 91.2 94.7 83.5 102.5C76.6 109.4 65.8 110.1 45.6 110.2C25.4 110.1 14.7 109.4 7.69 102.5C0 94.7 0 82.2 0 57.4L0 52.8C0 27.9 0 15.5 7.69 7.69C14.7 0.8 25.4 0.09 45.6 0Z" fill="#FF2B42" fill-opacity="1.000000" fill-rule="evenodd"/>
	<path id="path" d="M36.9 38.2C35.5 37.6 33.9 38.5 33.7 40C32.8 45 32.3 49.9 32.3 55C32.3 60.2 32.8 65.3 33.8 70.2C34 71.7 35.6 72.6 37 72C46.2 68.6 54.6 63.5 61.9 56.9C63 55.9 63 54.3 61.9 53.3C54.6 46.7 46.1 41.5 36.9 38.2ZM22.5 37.8C24.1 29.5 32.8 24.6 40.7 27.5C51.3 31.4 61.1 37.3 69.5 44.9C75.6 50.4 75.6 59.9 69.5 65.4C61.2 73 51.4 78.9 40.8 82.8C32.9 85.7 24.2 80.8 22.6 72.6C21.4 66.8 20.9 61 20.9 55.1C20.8 49.1 21.4 43.3 22.5 37.8Z" fill="#FFFFFF" fill-opacity="1.000000" fill-rule="evenodd"/>
</svg>
